<svg width="13" height="13" viewBox="0 0 13 13" fill="none" xmlns="http://www.w3.org/2000/svg">
<g clip-path="url(#clip0)">
<path d="M6.00819 6.00816C6.71362 5.63231 7.56051 5.63269 8.26556 6.00891C7.89046 5.30273 7.89046 4.45622 8.26594 3.75117C7.56051 4.12627 6.71437 4.12664 6.00819 3.75154C6.38404 4.45622 6.38404 5.30273 6.00819 6.00816ZM9.01877 2.99833C9.48943 2.74814 10.053 2.74814 10.5241 2.99871C10.2727 2.52843 10.2731 1.96371 10.5233 1.4938C10.0534 1.74399 9.48906 1.74399 9.01839 1.4938C9.26859 1.96446 9.26896 2.52843 9.01877 2.99833ZM5.25649 -0.0114923C5.63272 0.69356 5.63234 1.54045 5.25762 2.2455C5.96417 1.87003 6.80956 1.8704 7.51612 2.24588C7.13951 1.54045 7.13989 0.693559 7.51386 -0.0107401C6.81031 0.363983 5.96267 0.363607 5.25649 -0.0114923V-0.0114923ZM10.8995 10.8995C8.41003 13.389 4.35956 13.389 1.87006 10.8995C-0.619447 8.41 -0.619447 4.35953 1.87006 1.87003C2.58263 1.15745 3.42275 0.691302 4.33398 0.293252C3.41447 1.59199 2.03748 5.04727 4.87988 7.88968C7.68429 10.6941 10.9466 9.50407 12.4763 8.43559C12.2303 9.31822 11.6121 10.1869 10.8995 10.8995V10.8995Z" fill="white"/>
</g>
<defs>
<clipPath id="clip0">
<rect width="12.7696" height="12.7696" fill="white"/>
</clipPath>
</defs>
</svg>
